<?xml version="1.0" encoding="utf-8"?>
<!-- Generator: Adobe Illustrator 19.1.0, SVG Export Plug-In . SVG Version: 6.00 Build 0)  -->
<svg version="1.1" id="Layer_1" xmlns="http://www.w3.org/2000/svg" xmlns:xlink="http://www.w3.org/1999/xlink" x="0px" y="0px"
	 viewBox="0 0 73.6 24" style="enable-background:new 0 0 73.6 24;" xml:space="preserve">
<style type="text/css">
	.st0{fill:#BBBBBB;}
</style>
<path id="XMLID_55_" class="st0" d="M0.1,9.3C0.1,4.2,4.4,0,9.5,0c2.9,0,4.8,1.1,6.4,2.6l-1.8,1.8C13,3.3,11.5,2.6,9.5,2.6
	c-3.8,0-6.7,3-6.7,6.8s2.9,6.8,6.7,6.8c2.4,0,3.8-1,4.7-1.9c0.8-0.8,1.2-1.7,1.4-3.2H9.4V8.5h8.7c0.1,0.5,0.2,1,0.2,1.6
	c0,1.9-0.5,4.3-2.2,6c-1.7,1.7-3.7,2.6-6.5,2.6C4.4,18.6,0.1,14.4,0.1,9.3z"/>
<path id="XMLID_52_" class="st0" d="M25.2,6.6c-3.3,0-6,2.5-6,6c0,3.5,2.7,6,6,6s6-2.6,6-6C31.2,9.1,28.5,6.6,25.2,6.6z M25.2,16.2
	c-1.8,0-3.4-1.5-3.4-3.6c0-2.2,1.6-3.6,3.4-3.6c1.8,0,3.4,1.5,3.4,3.6C28.5,14.7,27,16.2,25.2,16.2z"/>
<path id="XMLID_49_" class="st0" d="M38.3,6.6c-3.3,0-6,2.5-6,6c0,3.5,2.7,6,6,6c3.3,0,6-2.6,6-6C44.3,9.1,41.6,6.6,38.3,6.6z
	 M38.3,16.2c-1.8,0-3.4-1.5-3.4-3.6c0-2.2,1.6-3.6,3.4-3.6c1.8,0,3.4,1.5,3.4,3.6S40.1,16.2,38.3,16.2z"/>
<path id="XMLID_46_" class="st0" d="M54.4,6.9v1h-0.1c-0.6-0.7-1.7-1.4-3.2-1.4c-3,0-5.7,2.6-5.7,6s2.7,6,5.7,6
	c1.4,0,2.6-0.6,3.2-1.4h0.1V18c0,2.3-1.2,3.5-3.2,3.5c-1.6,0-2.6-1.1-3-2.1l-2.3,1c0.7,1.6,2.4,3.5,5.3,3.5c3.1,0,5.7-1.8,5.7-6.3
	V6.9H54.4z M51.4,16.2c-1.8,0-3.3-1.5-3.3-3.6S49.6,9,51.4,9s3.2,1.5,3.2,3.6C54.6,14.7,53.2,16.2,51.4,16.2z"/>
<rect id="XMLID_45_" x="58.8" y="0.6" class="st0" width="2.6" height="17.7"/>
<path id="XMLID_42_" class="st0" d="M68.6,16.2c-1.4,0-2.3-0.6-2.9-1.8l8-3.3l-0.3-0.7c-0.5-1.4-2-3.8-5.1-3.8s-5.7,2.4-5.7,6
	c0,3.4,2.6,6,6,6c2.7,0,4.4-1.7,5-2.6l-2-1.4C70.8,15.5,69.9,16.2,68.6,16.2z M68.4,8.9c1.1,0,2,0.5,2.3,1.3l-5.4,2.3
	C65.2,10.1,67.1,8.9,68.4,8.9z"/>
</svg>
