<?xml version="1.0" encoding="utf-8"?>
<!-- Generator: Adobe Illustrator 21.0.0, SVG Export Plug-In . SVG Version: 6.00 Build 0)  -->
<svg version="1.1" id="Layer_1" xmlns="http://www.w3.org/2000/svg" xmlns:xlink="http://www.w3.org/1999/xlink" x="0px" y="0px"
	 viewBox="0 0 165.8 112.5" style="enable-background:new 0 0 165.8 112.5;" xml:space="preserve">
<style type="text/css">
	.st0{fill:#E2E2E2;}
	.st1{opacity:0.8;fill:#AFAFAF;}
	.st2{fill:#EEEEEE;}
</style>
<g>
	<path class="st0" d="M153.8,105.1H12c-2.7,0-4.8-2.2-4.8-4.8V10.8c0-2.7,3.5-3.3,5.3-3.3l140.9,0.1c1.9,0,5.3,0.5,5.3,3.3v89.4
		C158.6,102.9,156.5,105.1,153.8,105.1z"/>
	<path class="st1" d="M153.4,7.5L17,7.5c-3.3,0-4.7,4.2-2.2,6.2l71.9,56.6c2.8,2.4,6.9,2.4,9.6,0l61.5-57.2l0.7-2.3
		C158.6,9.6,157.5,7.5,153.4,7.5z"/>
	<path class="st2" d="M155.3,7.4c3.2,0,4.6,4,2.1,6L87.8,70.3c-2.7,2.4-6.9,2.4-9.6,0L8.5,13.7c-2.6-2.1-1.1-6.2,2.2-6.2H155.3z"/>
</g>
</svg>
