<?xml version="1.0" encoding="utf-8"?>
<!-- Generator: Adobe Illustrator 19.1.0, SVG Export Plug-In . SVG Version: 6.00 Build 0)  -->
<svg version="1.1" id="Layer_1" xmlns="http://www.w3.org/2000/svg" xmlns:xlink="http://www.w3.org/1999/xlink" x="0px" y="0px"
	 viewBox="-480 404.9 230 32" style="enable-background:new -480 404.9 230 32;" xml:space="preserve">
<style type="text/css">
	.st0{opacity:0.54;}
	.st1{opacity:0.38;}
	.st2{fill:#4285F4;}
	.st3{fill:#EA4335;}
	.st4{fill:#FBBC05;}
	.st5{fill:#34A853;}
</style>
<g>
	<g id="XMLID_63_" class="st0">
		<path id="XMLID_73_" d="M-476.7,424.7V417h-2.6v-2.5h2.6v-4.5h2.8v4.5h3.6v2.5h-3.6v7.5c0,1.7,0.7,2.4,2,2.4
			c0.5,0,0.9-0.1,1.3-0.2l1,2.4c-0.6,0.3-1.3,0.4-2.2,0.4C-475,429.4-476.7,427.7-476.7,424.7z"/>
		<path id="XMLID_71_" d="M-465.2,414.4l-0.1,2h0.1c0.8-1.4,2.6-2.5,4.7-2.5c3.8,0,5.6,2.6,5.6,6.2v9h-2.8v-8.6
			c0-3.1-1.5-4.1-3.6-4.1c-2.4,0-3.9,2.3-3.9,4.5v8.2h-2.8v-21.5h2.8V414.4z"/>
		<path id="XMLID_68_" d="M-452.3,409.4c0-1.1,0.9-2,2-2s2,0.9,2,2c0,1.1-0.9,2-2,2S-452.3,410.4-452.3,409.4z M-451.7,429.2v-14.7
			h2.8v14.7H-451.7z"/>
		<path id="XMLID_66_" d="M-443,416.5h0.1c0.8-1.4,2.6-2.5,4.7-2.5c3.8,0,5.6,2.6,5.6,6.2v9h-2.8v-8.6c0-3.1-1.5-4.1-3.6-4.1
			c-2.4,0-3.9,2.3-3.9,4.5v8.2h-2.8v-14.7h2.6V416.5z"/>
		<path id="XMLID_64_" d="M-426.9,420.8l6.3-6.4h3.7v0.1l-5.7,5.7l6,8.8v0.1h-3.3l-4.6-6.9l-2.2,2.2v4.7h-2.8v-21.5h2.8V420.8z"/>
	</g>
	<g id="XMLID_53_" class="st1">
		<path id="XMLID_61_" d="M-394.6,429.2l-3.7-11.3l-3.6,11.3h-2.8l-4.8-14.7h2.9l3.3,11.1h0l3.6-11.1h2.9l3.6,11.1h0l3.2-11.1h2.8
			l-4.8,14.7H-394.6z"/>
		<path id="XMLID_58_" d="M-385.7,409.4c0-1.1,0.9-2,2-2c1.1,0,2,0.9,2,2c0,1.1-0.9,2-2,2C-384.8,411.3-385.7,410.4-385.7,409.4z
			 M-385.1,429.2v-14.7h2.8v14.7H-385.1z"/>
		<path id="XMLID_56_" d="M-377.7,424.7V417h-2.6v-2.5h2.6v-4.5h2.8v4.5h3.6v2.5h-3.6v7.5c0,1.7,0.7,2.4,2,2.4
			c0.5,0,0.9-0.1,1.3-0.2l1,2.4c-0.6,0.3-1.3,0.4-2.2,0.4C-376.1,429.4-377.7,427.7-377.7,424.7z"/>
		<path id="XMLID_54_" d="M-366.2,414.4l-0.1,2h0.1c0.8-1.4,2.6-2.5,4.7-2.5c3.8,0,5.6,2.6,5.6,6.2v9h-2.8v-8.6
			c0-3.1-1.5-4.1-3.6-4.1c-2.4,0-3.9,2.3-3.9,4.5v8.2h-2.8v-21.5h2.8V414.4z"/>
	</g>
	<g id="XMLID_1_">
		<path id="XMLID_9_" class="st2" d="M-348.2,417.3c0-6.8,5.7-12.3,12.5-12.3c3.8,0,6.4,1.5,8.5,3.4l-2.4,2.4
			c-1.4-1.4-3.4-2.4-6.1-2.4c-5,0-8.8,4-8.8,9c0,5,3.9,9,8.8,9c3.2,0,5.1-1.3,6.2-2.5c1-1,1.6-2.3,1.8-4.2h-8.1v-3.4h11.3
			c0.1,0.6,0.2,1.3,0.2,2.1c0,2.5-0.7,5.7-2.9,7.9c-2.2,2.3-4.9,3.5-8.6,3.5C-342.5,429.7-348.2,424.1-348.2,417.3z"/>
		<path id="XMLID_7_" class="st3" d="M-315,413.8c-4.4,0-8,3.3-8,7.9c0,4.6,3.6,7.9,8,7.9c4.4,0,8-3.4,8-7.9
			C-307,417.1-310.6,413.8-315,413.8z M-315,426.5c-2.4,0-4.5-2-4.5-4.8c0-2.9,2.1-4.8,4.5-4.8c2.4,0,4.5,2,4.5,4.8
			C-310.5,424.5-312.6,426.5-315,426.5z"/>
		<path id="XMLID_5_" class="st4" d="M-297.6,413.8c-4.4,0-8,3.3-8,7.9c0,4.6,3.6,7.9,8,7.9c4.4,0,8-3.4,8-7.9
			C-289.6,417.1-293.2,413.8-297.6,413.8z M-297.6,426.5c-2.4,0-4.5-2-4.5-4.8c0-2.9,2.1-4.8,4.5-4.8s4.5,2,4.5,4.8
			C-293.1,424.5-295.2,426.5-297.6,426.5z"/>
		<path id="XMLID_43_" class="st2" d="M-276.3,414.3v1.3h-0.1c-0.8-0.9-2.3-1.8-4.2-1.8c-4,0-7.6,3.5-7.6,8c0,4.5,3.6,7.9,7.6,7.9
			c1.9,0,3.4-0.8,4.2-1.8h0.1v1.1c0,3-1.6,4.7-4.2,4.7c-2.1,0-3.5-1.5-4-2.8l-3,1.3c0.9,2.1,3.2,4.7,7,4.7c4.1,0,7.6-2.4,7.6-8.3
			v-14.3H-276.3z M-280.3,426.5c-2.4,0-4.4-2-4.4-4.8c0-2.8,2-4.8,4.4-4.8c2.4,0,4.2,2,4.2,4.8C-276,424.5-277.9,426.5-280.3,426.5z
			"/>
		<rect id="XMLID_2_" x="-270.6" y="405.8" class="st5" width="3.5" height="23.3"/>
		<path id="XMLID_39_" class="st3" d="M-257.5,426.5c-1.8,0-3-0.8-3.9-2.4l10.6-4.4l-0.4-0.9c-0.7-1.8-2.7-5.1-6.8-5.1
			c-4.1,0-7.5,3.2-7.5,7.9c0,4.5,3.4,7.9,7.9,7.9c3.6,0,5.7-2.2,6.6-3.5l-2.7-1.8C-254.5,425.7-255.7,426.5-257.5,426.5z
			 M-257.8,416.8c1.4,0,2.6,0.7,2.9,1.7l-7.1,2.9C-262,418.4-259.5,416.8-257.8,416.8z"/>
	</g>
</g>
</svg>
