<svg xmlns="http://www.w3.org/2000/svg" viewBox="0 0 150 100">
<g>
	<path fill="#0A2426" d="M37,86.8V13.2l37.9-7.3l0.1,0l38,7.3v73.6l-38,7.3L37,86.8 M38.5,14.5v71l36.5,7l36.5-7v-71L75,7.5
		L38.5,14.5z"/>
	<path fill="#0A2426" d="M41.2,82.7V17.3l33.7-6.5l0.1,0l33.8,6.5v65.4L75,89.2L41.2,82.7 M42.3,18.2v63.6L75,88.1l32.7-6.3V18.2
		L75,11.9L42.3,18.2z"/>
	<path fill="#0A2426" d="M79.6,73.2c0-0.9-0.7-1.6-1.6-1.6c-0.6,0-1.1,0.3-1.4,0.8l0,0l0,0.1c0,0,0,0,0,0.1l-1.5,3.2L74.7,76
		l-0.4-0.3l-1.5-3.2c0,0,0,0,0-0.1l0-0.1v0c-0.3-0.5-0.8-0.8-1.4-0.8c-0.9,0-1.6,0.7-1.6,1.6c0,0.9,0.7,1.6,1.6,1.6
		c0.5,0,1-0.3,1.2-0.6c0.3,0.6,0.8,1.9,1.3,2.4l0,0L71.1,81c-0.7,1.4,0,2.5,0,2.5l3.3-5.9c0,0,0.1-0.1,0.3-0.3
		c0.2,0.2,0.3,0.3,0.3,0.3l3.3,5.9c0,0,0.8-1.1,0-2.5l-2.7-4.5l0,0c0.4-0.5,1-1.8,1.3-2.4c0.3,0.4,0.7,0.6,1.2,0.6
		C78.9,74.7,79.6,74,79.6,73.2 M72.4,73.1c0,0.6-0.4,1-1,1c-0.6,0-1-0.4-1-1c0-0.6,0.4-1,1-1C71.9,72.1,72.4,72.6,72.4,73.1
		 M79.1,73.2c0,0.6-0.5,1-1,1c-0.6,0-1-0.5-1-1c0-0.6,0.5-1,1-1C78.6,72.1,79.1,72.6,79.1,73.2"/>
	<path fill="#0A2426" d="M69.8,26.8c0,0.9,0.7,1.6,1.6,1.6c0.6,0,1.1-0.3,1.4-0.8l0,0l0-0.1c0,0,0,0,0-0.1l1.5-3.2l0.4-0.3l0.4,0.3
		l1.5,3.2c0,0,0,0,0,0.1l0,0.1v0c0.3,0.5,0.8,0.8,1.4,0.8c0.9,0,1.6-0.7,1.6-1.6c0-0.9-0.7-1.6-1.6-1.6c-0.5,0-1,0.3-1.2,0.6
		c-0.3-0.6-0.8-1.9-1.3-2.4l0,0l2.7-4.5c0.7-1.4,0-2.5,0-2.5L75,22.4c0,0-0.1,0.1-0.3,0.3c-0.2-0.2-0.3-0.3-0.3-0.3l-3.3-5.9
		c0,0-0.8,1.1,0,2.5l2.7,4.5l0,0c-0.4,0.5-1,1.8-1.3,2.4c-0.3-0.4-0.7-0.6-1.2-0.6C70.5,25.3,69.8,26,69.8,26.8 M77.1,26.9
		c0-0.6,0.4-1,1-1c0.6,0,1,0.4,1,1c0,0.6-0.4,1-1,1C77.5,27.9,77.1,27.4,77.1,26.9 M70.4,26.8c0-0.6,0.5-1,1-1c0.6,0,1,0.5,1,1
		c0,0.6-0.5,1-1,1C70.8,27.9,70.4,27.4,70.4,26.8"/>
	<path fill="#0A2426" d="M59,41.8l-0.3,0.6c-0.4,0.9-1.6,1.6-2,1.5c-0.1,0-0.1,0-0.1,0c-1-0.3-1.2-0.7-1.2-1.6c0-0.8,0.4-1.9,1-2.8
		c0.2-0.4,0.5-0.6,0.8-0.9c0.4,0.1,0.8,0.5,1.1,1.1l1.1-0.3l0,0.1l4.1-1.1l-0.2-0.7c-0.8-2.5-2.8-3.8-4.8-3.8
		c-2.6,0-5.4,1.8-6.7,4.6c-0.9,1.1-1.5,2.5-1.6,4c-0.4,4.5,3.8,6.9,7.2,5.5c2-0.2,4.1-1.4,5.2-3.9l0.3-0.6L62,43.2L59,41.8
		 M56.6,46.7c-2.3,0-4.5-1.7-4.5-4.7c0-0.2,0-0.3,0-0.5c0.3-3.5,3.5-6.2,6.1-6.2h0c1.3,0,2.5,0.6,3.2,2.1L60,37.9
		c-0.5-0.7-1.2-1.1-1.9-1c-2.3,0.2-4.1,3-4.2,5.5c0,1.3,0.7,2.6,2.3,2.9c0.1,0,0.3,0,0.4,0c1.1,0,2.1-0.7,2.9-1.7l1.2,0.6
		C59.7,46,58.2,46.7,56.6,46.7"/>
	<path fill="#0A2426" d="M71.2,34.4L71.1,35c-0.1,0.4-0.1,0.8-0.2,1.2l-0.6,0c-0.2,1-0.3,1.7-0.5,3l-1.1,0c0.3-2.3,0.5-3.2,0.6-4.3
		l0.1-0.7L64.8,34l-0.1,0.6c0,0.4-0.1,0.8-0.1,1.2l-0.6,0c-0.5,3.9-1,8-1.4,12.2l3.1,0.1c0-0.1,0-0.3,0-0.4l2.1,0.1l0.1-0.6
		c0.1-1,0.2-2,0.4-3.1l0.7,0c-0.1,0.8-0.3,2.2-0.5,4l3.4,0c0-0.1,0-0.2,0-0.3l2.1,0l0.1-0.6c0.1-0.9,0.4-3.5,0.7-5
		c0.3-2.2,0.6-4.4,0.8-6.8l0.1-0.8L71.2,34.4 M73.1,41.8c-0.2,1.3-0.5,3.3-0.6,4.5l-2,0c0.2-1.5,0.3-2.5,0.4-3.3l0.1-0.7l-4.1-0.2
		l-0.1,0.7c-0.1,1.2-0.3,2.4-0.4,3.5l-1.7-0.1c0.4-3.7,0.8-7.3,1.3-10.8l1.7,0.1c-0.1,0.9-0.3,2-0.6,4.3L67,40.5l4.5,0.1l0.1-0.6
		c0.4-2.1,0.6-3.1,0.7-4.2l1.5,0C73.6,37.9,73.4,39.8,73.1,41.8"/>
	<path fill="#0A2426" d="M95.5,37c-0.5-0.3-1.1-0.3-1.5-0.3l-0.6,0l-0.6,4.5l0.8,0c0,0,0.1,0,0.2,0c0.3,0,0.9,0,1.5-0.3
		c0.6-0.3,1.3-1,1.3-2.1v-0.1C96.5,37.9,96,37.2,95.5,37 M100.1,37.9c-0.1-1.8-1.1-2.9-2.3-3.5c-1.2-0.6-2.6-0.8-3.7-0.8l0,0
		l-3.6-0.1l-0.1,0.6c-0.1,0.3-0.1,0.7-0.2,1.2l-0.6,0c-0.4,2.3-1.4,7.8-2.2,13l3.8,0c0-0.1,0-0.2,0-0.3l2.1,0l0.1-0.6
		c0.1-1.2,0.2-1.3,0.4-3c0.3-0.1,0.7-0.2,1-0.3c1.2-0.2,2.4-0.6,3.4-1.3c1.3-1,2.1-2.5,2.1-4.5C100.1,38.2,100.1,38,100.1,37.9
		 M93.4,42.7c-0.1,0-0.2,0-0.3,0l-0.6,0l-0.1,0.6c-0.2,2-0.3,2.4-0.4,3.2l-2.4,0c0.7-4.6,1.5-9.2,2-11.6L94,35l0,0
		c1,0.1,2.2,0.2,3.1,0.7c0.9,0.5,1.5,1.1,1.5,2.3c0,0.1,0,0.2,0,0.3C98.6,41.4,96.4,42.7,93.4,42.7"/>
	<path fill="#0A2426" d="M94.4,39.7c0.1,0,0.2-0.1,0.2-0.1c0.3-0.2,0.5-0.3,0.5-0.9v-0.1c0-0.3-0.1-0.3-0.2-0.4
		c-0.1,0-0.2-0.1-0.3-0.1L94.4,39.7"/>
	<path fill="#0A2426" d="M87.8,37.4L87.8,37.4c-0.6-2.6-2.6-3.9-4.6-3.8c-1.9,0-3.8,1-5.2,2.4c-0.7,0.7-1.2,1.4-1.5,2.2
		c-3.7,4.9-0.7,11.6,4.5,9.5c1-0.1,2.1-0.5,3.3-1.2c2.2-1.5,3.7-4.5,3.7-7.4C88.1,38.6,88,38,87.8,37.4 M83.6,45.4
		c-1.1,0.7-2.1,1-2.9,1c-2.1,0-3.6-1.9-3.6-4.5c0-1.6,0.6-3.4,2-4.9c1.1-1.2,2.8-2,4.2-2h0c1.5,0,2.6,0.7,3.2,2.8v0
		c0.1,0.4,0.2,0.9,0.2,1.4C86.7,41.5,85.3,44.3,83.6,45.4 M82.7,36.9c-1,0-1.9,0.5-2.6,1.3c-1,1-1.4,2.3-1.4,3.5
		c0,1.5,0.8,3,2.5,3.1c0.6,0,1.2-0.2,1.8-0.6v0c1.2-0.8,2.1-2.5,2.1-4.2c0-0.2,0-0.4,0-0.6C84.8,37.8,83.8,36.9,82.7,36.9
		 M82.5,42.7c-0.1,0.1-0.2,0.2-0.3,0.2l0,0c-0.4,0.3-0.8,0.4-1,0.4c-0.6,0-1-0.6-1.1-1.7c0-0.8,0.3-1.7,1-2.5
		c0.2-0.2,0.3-0.3,0.5-0.4c0.6,0.2,1,0.7,1.2,1.7C82.9,41.2,82.8,42,82.5,42.7"/>
	<path fill="#0A2426" d="M59,59.9l-0.3,0.6c-0.4,0.9-1.6,1.6-2,1.5c-0.1,0-0.1,0-0.1,0c-1-0.3-1.2-0.7-1.2-1.6c0-0.8,0.4-1.9,1-2.8
		c0.2-0.4,0.5-0.6,0.8-0.9c0.4,0.1,0.8,0.5,1.1,1.1l1.1-0.3l0,0.1l4.1-1.1l-0.2-0.7c-0.8-2.5-2.8-3.8-4.8-3.8
		c-2.6,0-5.4,1.8-6.7,4.6c-0.9,1.1-1.5,2.5-1.6,4c-0.4,4.5,3.8,6.9,7.2,5.5c2-0.2,4.1-1.4,5.2-3.9l0.3-0.6L62,61.3L59,59.9
		 M56.6,64.7c-2.3,0-4.5-1.7-4.5-4.7c0-0.2,0-0.3,0-0.5c0.3-3.5,3.5-6.2,6.1-6.2h0c1.3,0,2.5,0.6,3.2,2.1L60,55.9
		c-0.5-0.7-1.2-1.1-1.9-1c-2.3,0.2-4.1,3.1-4.2,5.5c0,1.3,0.7,2.6,2.3,2.9c0.1,0,0.3,0,0.4,0c1.1,0,2.1-0.7,2.9-1.7l1.2,0.6
		C59.7,64,58.2,64.7,56.6,64.7"/>
	<path fill="#0A2426" d="M71.2,52.4L71.1,53c-0.1,0.4-0.1,0.8-0.2,1.2l-0.6,0c-0.2,1-0.3,1.7-0.5,3l-1.1,0c0.3-2.3,0.5-3.2,0.6-4.3
		l0.1-0.7L64.8,52l-0.1,0.6c0,0.4-0.1,0.8-0.1,1.2l-0.6,0c-0.5,3.9-1,8-1.4,12.2l3.1,0.1c0-0.1,0-0.3,0-0.4l2.1,0.1l0.1-0.6
		c0.1-1,0.2-2,0.4-3.1l0.7,0c-0.1,0.8-0.3,2.2-0.5,4l3.4,0c0-0.1,0-0.2,0-0.3l2.1,0l0.1-0.6c0.1-0.9,0.4-3.5,0.7-5
		c0.3-2.2,0.6-4.4,0.8-6.8l0.1-0.8L71.2,52.4 M73.1,59.8c-0.2,1.3-0.5,3.3-0.6,4.5l-2,0c0.2-1.5,0.3-2.5,0.4-3.3l0.1-0.7l-4.1-0.2
		l-0.1,0.7c-0.1,1.2-0.3,2.4-0.4,3.5l-1.7-0.1c0.4-3.7,0.8-7.3,1.3-10.8l1.7,0.1c-0.1,0.9-0.3,2-0.6,4.3L67,58.6l4.5,0.1l0.1-0.6
		c0.4-2.1,0.6-3.1,0.7-4.2l1.5,0C73.6,55.9,73.4,57.9,73.1,59.8"/>
	<path fill="#0A2426" d="M95.5,55c-0.5-0.3-1.1-0.3-1.5-0.3l-0.6,0l-0.6,4.5l0.8,0c0,0,0.1,0,0.2,0c0.3,0,0.9,0,1.5-0.3
		c0.6-0.3,1.3-1,1.3-2.1v-0.1C96.5,55.9,96,55.2,95.5,55 M100.1,56c-0.1-1.8-1.1-2.9-2.3-3.5c-1.2-0.6-2.6-0.8-3.7-0.8l0,0l-3.6-0.1
		l-0.1,0.6c-0.1,0.3-0.1,0.7-0.2,1.2l-0.6,0c-0.4,2.3-1.4,7.8-2.2,13l3.8,0c0-0.1,0-0.2,0-0.3l2.1,0l0.1-0.6c0.1-1.2,0.2-1.3,0.4-3
		c0.3-0.1,0.7-0.2,1-0.3c1.2-0.2,2.4-0.6,3.4-1.3c1.3-1,2.1-2.5,2.1-4.5C100.1,56.2,100.1,56.1,100.1,56 M93.4,60.8
		c-0.1,0-0.2,0-0.3,0l-0.6,0l-0.1,0.6c-0.2,2-0.3,2.4-0.4,3.2l-2.4,0c0.7-4.6,1.5-9.2,2-11.6L94,53l0,0c1,0.1,2.2,0.2,3.1,0.7
		c0.9,0.5,1.5,1.1,1.5,2.3c0,0.1,0,0.2,0,0.3C98.6,59.5,96.4,60.7,93.4,60.8"/>
	<path fill="#0A2426" d="M94.4,57.7c0.1,0,0.2-0.1,0.2-0.1c0.3-0.2,0.5-0.3,0.5-0.9v-0.1c0-0.3-0.1-0.3-0.2-0.4
		c-0.1,0-0.2-0.1-0.3-0.1L94.4,57.7"/>
	<path fill="#0A2426" d="M87.8,55.5L87.8,55.5c-0.6-2.6-2.6-3.9-4.6-3.8c-1.9,0-3.8,1-5.2,2.4c-0.7,0.7-1.2,1.4-1.5,2.2
		c-3.7,4.9-0.7,11.6,4.5,9.5c1-0.1,2.1-0.5,3.3-1.2c2.2-1.5,3.7-4.5,3.7-7.4C88.1,56.6,88,56,87.8,55.5 M83.6,63.4
		c-1.1,0.7-2.1,1-2.9,1c-2.1,0-3.6-1.9-3.6-4.5c0-1.6,0.6-3.4,2-4.9c1.1-1.2,2.8-2,4.2-2h0c1.5,0,2.6,0.7,3.2,2.8v0
		c0.1,0.4,0.2,0.9,0.2,1.4C86.7,59.6,85.3,62.3,83.6,63.4 M82.7,54.9c-1,0-1.9,0.5-2.6,1.3c-1,1-1.4,2.3-1.4,3.5
		c0,1.5,0.8,3,2.5,3.1c0.6,0,1.2-0.2,1.8-0.6v0c1.2-0.8,2.1-2.5,2.1-4.2c0-0.2,0-0.4,0-0.6C84.8,55.8,83.8,54.9,82.7,54.9
		 M82.5,60.7c-0.1,0.1-0.2,0.2-0.3,0.3c-0.4,0.3-0.8,0.4-1,0.4c-0.6,0-1-0.6-1.1-1.7c0-0.8,0.3-1.8,1-2.5c0.2-0.2,0.3-0.3,0.5-0.4
		c0.6,0.2,1,0.7,1.2,1.7C82.9,59.2,82.8,60,82.5,60.7"/>
</g>
</svg>
