<?xml version="1.0" encoding="utf-8"?>
<!-- Generator: Adobe Illustrator 19.1.0, SVG Export Plug-In . SVG Version: 6.00 Build 0)  -->
<svg version="1.1" id="Layer_1" xmlns="http://www.w3.org/2000/svg" xmlns:xlink="http://www.w3.org/1999/xlink" x="0px" y="0px"
	 viewBox="0 0 150 100" enable-background="new 0 0 150 100" xml:space="preserve">
<g>
	<path d="M75,10.7c-21.7,0-39.3,17.6-39.3,39.3S53.3,89.3,75,89.3s39.3-17.6,39.3-39.3S96.7,10.7,75,10.7z M75,69.8V70l0,0V69.8
		c-8-0.2-13.4-6.9-12.3-15.4c0.5-4.1,3.5-8.9,5.5-12.5c2.3-4.4,4.8-8,6.8-11.5v0c2,3.5,4.4,7.1,6.7,11.5c2,3.7,4.9,8.5,5.5,12.6
		C88.3,63,82,69.6,75,69.8z"/>
	<path fill="#666666" d="M66.2,62.4c4.3-0.2,7.7-4.3,7.1-9.6c-0.3-2.6-2-5.5-3.1-7.9c-1.3-2.7-2.7-5-3.9-7.2h0
		c-1.2,2.2-2.6,4.5-3.9,7.2c-1.1,2.3-2.8,5.3-3.1,7.9C58.5,58.1,61.8,62.2,66.2,62.4"/>
</g>
</svg>
