<?xml version="1.0" encoding="UTF-8"?>
<svg width="20px" height="20px" viewBox="0 0 20 20" version="1.1" xmlns="http://www.w3.org/2000/svg" xmlns:xlink="http://www.w3.org/1999/xlink">
    <!-- Generator: Sketch 44.1 (41455) - http://www.bohemiancoding.com/sketch -->
    <title>googleplus</title>
    <desc>Created with Sketch.</desc>
    <defs></defs>
    <g id="Page-1" stroke="none" stroke-width="1" fill="none" fill-rule="evenodd">
        <g id="googleplus" fill-rule="nonzero" fill="#080808">
            <path d="M10.8571429,11.1428571 C10.1428571,10.5714286 9.28571429,9.85714286 9.28571429,9.42857143 C9.28571429,8.85714286 9.42857143,8.71428571 10.4285714,7.85714286 C11.7142857,6.85714286 12.2857143,5.85714286 12.2857143,4.57142857 C12.2857143,3.28571429 11.7142857,2.85714286 10.8571429,1.42857143 L12,1.42857143 L14.2857143,0 L7.14285714,0 C4.14285714,0 1.42857143,2.14285714 1.42857143,4.57142857 C1.42857143,7.28571429 3.57142857,9.14285714 6.57142857,9.14285714 C6.57142857,9.14285714 6.71428571,9.14285714 6.71428571,9.14285714 C6.57142857,9.42857143 6.42857143,9.71428571 6.42857143,10 C6.42857143,10.5714286 6.57142857,11 7,11.4285714 C6.85714286,11.4285714 6.71428571,11.4285714 6.42857143,11.4285714 C3,11.4285714 0,13.5714286 0,16.1428571 C0,18.4285714 2.85714286,20 6.71428571,20 C11,20 13.1428571,17.7142857 13.1428571,15.2857143 C13.2857143,13.4285714 12.5714286,12.2857143 10.8571429,11.1428571 Z M4.14285714,4.71428571 C4,3.57142857 4.28571429,2.57142857 4.85714286,2 C5.14285714,1.57142857 5.71428571,1.42857143 6.28571429,1.42857143 L6.28571429,1.42857143 C7.85714286,1.42857143 9.28571429,2.85714286 9.57142857,4.85714286 C9.71428571,6 9.42857143,7.14285714 8.85714286,7.71428571 C8.57142857,8.14285714 8,8.57142857 7.42857143,8.57142857 L7.42857143,8.57142857 C5.85714286,8.57142857 4.42857143,6.57142857 4.14285714,4.71428571 Z M6.71428571,18.5714286 C4.57142857,18.5714286 2.71428571,17.4285714 2.71428571,15.7142857 C2.85714286,14.1428571 4.85714286,12.8571429 7.14285714,12.8571429 L7.14285714,12.8571429 C7.71428571,12.8571429 8.14285714,12.7142857 8.57142857,12.8571429 C8.71428571,13 8.85714286,13 9,13.1428571 C10,13.8571429 10.7142857,14.2857143 11,15 C11,15.1428571 11,15.2857143 11,15.5714286 C11.1428571,17.5714286 9.57142857,18.5714286 6.71428571,18.5714286 Z" id="Shape"></path>
            <polygon id="Shape" points="17.1428571 8.57142857 17.1428571 5.71428571 15.7142857 5.71428571 15.7142857 8.57142857 12.8571429 8.57142857 12.8571429 10 15.7142857 10 15.7142857 12.8571429 17.1428571 12.8571429 17.1428571 10 20 10 20 8.57142857"></polygon>
        </g>
    </g>
</svg>
