<svg version="1.1" id="Layer_1" xmlns="http://www.w3.org/2000/svg" xmlns:xlink="http://www.w3.org/1999/xlink" x="0px" y="0px"
	 viewBox="0 0 150 100" style="enable-background:new 0 0 150 100;" xml:space="preserve">
<g>
	<g>
		<path d="M56.4,61.5h-3.8V37.4h3.8v10.3h4.3V37.4h3.9v24.1h-3.9V51.1h-4.3V61.5z"/>
		<path d="M71,37.4V56c0,1.7,0.8,2.3,2,2.3c1.2,0,2-0.6,2-2.3V37.4h3.6v18.4c0,3.9-1.9,6.1-5.7,6.1c-3.7,0-5.7-2.2-5.7-6.1V37.4H71z
			"/>
		<path d="M84.9,47.5h5.2V51h-5.2V58h6.5v3.4H81.1V37.4h10.3v3.4h-6.5V47.5z"/>
		<path d="M101.8,54.5L101.8,54.5l2.6-17.1h5.3v24.1h-3.6V44.2H106l-2.5,17.3h-3.6l-2.8-17.1H97v17.1h-3.3V37.4H99L101.8,54.5z"/>
		<path d="M112.1,43.1c0-3.9,2-6.1,5.8-6.1c3.7,0,5.8,2.2,5.8,6.1v12.5c0,3.9-2,6.1-5.8,6.1c-3.7,0-5.8-2.2-5.8-6.1V43.1z
			 M115.9,55.9c0,1.7,0.8,2.4,2,2.4c1.2,0,2-0.7,2-2.4v-13c0-1.7-0.8-2.4-2-2.4c-1.2,0-2,0.7-2,2.4V55.9z"/>
		<path d="M134,61.5c-0.2-0.6-0.3-1-0.3-3v-3.8c0-2.2-0.8-3.1-2.5-3.1h-1.3v9.8h-3.8V37.4h5.7c3.9,0,5.6,1.8,5.6,5.5v1.9
			c0,2.5-0.8,4.1-2.5,4.9v0.1c1.9,0.8,2.5,2.6,2.5,5.1v3.7c0,1.2,0,2,0.4,2.9H134z M129.8,40.8v7.4h1.5c1.4,0,2.3-0.6,2.3-2.6v-2.4
			c0-1.7-0.6-2.5-1.9-2.5H129.8z"/>
	</g>
	<g>
		<g>
			<path d="M16.3,41.2c2-2,4.7-3.3,7.7-3.4v-4.8v-1.3c-4.8,0-9.1,1.9-12.2,5l1.9,1.9c0,0,0,0,0,0L16.3,41.2z"/>
			<path d="M9.5,49H6.9c0,4.8,1.9,9.1,5,12.2l4.3-4.3c-2-2-3.2-4.8-3.2-7.8L9.5,49z"/>
			<path d="M24.2,60.2v4.8c0,0,0,0-0.1,0v1.3c4.8,0,9.1-1.9,12.2-5L32.1,57c-2,2-4.8,3.2-7.8,3.2C24.2,60.2,24.2,60.2,24.2,60.2z"/>
			<path d="M32,41c2.1,2,3.4,4.8,3.4,7.9l3.3-0.1c0,0.1,0,0.1,0,0.2h2.8c0-4.8-2.1-9.3-5.2-12.5l-1.1,1.1c0,0,0,0,0.1,0.1L32,41z"/>
			<path d="M24.3,37.8c3,0,5.7,1.2,7.7,3.1l3.2-3.3c-2.9-2.8-6.8-4.6-11.2-4.6v4.8C24.1,37.8,24.2,37.8,24.3,37.8z"/>
			<path d="M32,41l3.2-3.2c0,0,0,0-0.1-0.1L32,41C32,41,32,41,32,41z"/>
			<path d="M32,41l3.2-3.2c0,0,0,0-0.1-0.1L32,41C32,41,32,41,32,41z"/>
			<path d="M16.3,56.8l-3.4,3.4c2.9,2.9,6.8,4.6,11.2,4.7v-4.8C21.1,60.1,18.3,58.8,16.3,56.8z"/>
			<path d="M24.2,60.2C24.1,60.2,24.1,60.2,24.2,60.2l-0.1,4.8c0,0,0,0,0.1,0V60.2z"/>
			<path d="M24.2,60.2C24.1,60.2,24.1,60.2,24.2,60.2l-0.1,4.8c0,0,0,0,0.1,0V60.2z"/>
			<path d="M32.1,57l2.5,2.5c2.6-2.6,4.2-6.4,4.2-10.4h-3.3C35.5,52.1,34.2,55,32.1,57z"/>
			<path d="M35.4,48.9c0,0,0,0.1,0,0.1h3.3c0-0.1,0-0.1,0-0.2L35.4,48.9z"/>
			<path d="M35.4,48.9c0,0,0,0.1,0,0.1h3.3c0-0.1,0-0.1,0-0.2L35.4,48.9z"/>
			<path d="M16.3,41.3l-2.5-2.5C11.1,41.4,9.3,45,9.3,49l0.2,0h3.6C13.1,46,14.3,43.3,16.3,41.3z"/>
			<path d="M16.3,41.2l-2.5-2.5c0,0,0,0,0,0L16.3,41.2C16.3,41.3,16.3,41.3,16.3,41.2z"/>
			<path d="M16.3,41.2l-2.5-2.5c0,0,0,0,0,0L16.3,41.2C16.3,41.3,16.3,41.3,16.3,41.2z"/>
			<path d="M13.1,49H9.5H13.1C13.1,49,13.1,49,13.1,49z"/>
			<path d="M13.1,49H9.5H13.1C13.1,49,13.1,49,13.1,49z"/>
			<polygon points="24,49 24.1,49.1 24.1,49 			"/>
			<polygon points="24.1,49 24.2,49 24.1,49 			"/>
			<polygon points="24.1,49 24.1,49.1 24.1,49.1 24.1,49 			"/>
			<polygon points="32,41 32,41 32,41 			"/>
			<polygon points="24.2,49.1 24.2,49 24.1,49 24.2,49.1 24.2,49.1 24.2,49.1 			"/>
			<polygon points="24.2,49.1 24.2,49.1 24.2,49.1 			"/>
			<polygon points="24,49 24,49 24,49 			"/>
			<polygon points="24,49 24,49 24,49 24,49 			"/>
		</g>
		<path d="M35,43.3C35,43.3,35,43.3,35,43.3L35,43.3C35,43.3,35,43.3,35,43.3"/>
		<polygon points="35,43.2 35,43.3 35,43.3 		"/>
		<rect x="35" y="43.3" width="0" height="0.1"/>
		<path d="M35,43.3c0-0.1,0-0.1,0-0.2h0V43.3L35,43.3L35,43.3z"/>
		<path d="M29.9,46.4C29.9,46.4,29.9,46.4,29.9,46.4L29.9,46.4C29.9,46.4,29.9,46.4,29.9,46.4"/>
		<path d="M29.9,46.3L29.9,46.3L29.9,46.3z"/>
		<rect x="29.9" y="46.3" width="0" height="0"/>
		<g>
			<defs>
				<path id="SVGID_1_" d="M16.7,49c0,2.1,0.8,4,2.2,5.4l5.4-5.4H16.7z"/>
			</defs>
			<use xlink:href="#SVGID_1_"  style="overflow:visible;"/>
			<clipPath id="SVGID_2_">
				<use xlink:href="#SVGID_1_"  style="overflow:visible;"/>
			</clipPath>
		</g>
		<path d="M29.9,46.3c0,0,0-0.1,0-0.1h0V46.3L29.9,46.3z"/>
		<g>
			<g>
				<path d="M24.1,49.1l0-7.2c-2,0-3.8,0.8-5.1,2.1L24.1,49.1z"/>
				<path d="M18.8,54.3l5.3-5.3h-7.5C16.6,51.1,17.5,53,18.8,54.3z"/>
				<path d="M24.1,49v7.3c2,0,3.9-0.8,5.2-2.1L24.1,49z"/>
				<path d="M24.1,49h7.4c0-2-0.9-4-2.2-5.4L24.1,49z"/>
			</g>
			<g>
				<path d="M29,44.1c-1.2-1.2-3-1.9-4.9-1.9V49L29,44.1z"/>
				<path d="M19.5,53.7c1.2,1.2,2.8,1.9,4.6,1.9l0-6.6L19.5,53.7z"/>
			</g>
			<g>
				<path d="M28.3,53.2c1.1-1.1,1.7-2.6,1.7-4.2h-5.9L28.3,53.2z"/>
				<path d="M19.9,44.8c-1.1,1.1-1.7,2.6-1.7,4.2h5.9L19.9,44.8z"/>
			</g>
		</g>
	</g>
	<g>
		<path d="M138,38v-0.7h2.1V38h-0.7v3.8h-0.7V38H138z M141.5,41.8l-0.5-2.9v2.9h-0.7v-4.4h0.9l0.4,2.1h0l0.4-2.1h0.9v4.4h-0.7v-2.9
			l-0.5,2.9H141.5z"/>
	</g>
</g>
</svg>
