<svg xmlns="http://www.w3.org/2000/svg" viewBox="0 0 150 100" enable-background="new 0 0 150 100" xml:space="preserve">
<g id="Page-1">
	<g id="logo-black">
		<path id="Fill-1" d="M21.1,64.6c-2.1-0.9-3.9-2.3-5.5-4.2c-1.4-1.5-2.4-3.3-3.1-5.3c-0.6-1.6-0.9-3.3-1-5.1h6
			c0.2,2.7,1.2,4.9,3,6.8c1.9,2,4.2,3.1,6.9,3.2v6C25,65.9,22.9,65.5,21.1,64.6L21.1,64.6L21.1,64.6L21.1,64.6z M20.4,41.3
			c-0.2,0.2-0.4,0.4-0.6,0.7h-7.1c0.9-1.9,2.1-3.6,3.6-5.1c1.6-1.6,3.3-2.7,5.3-3.5c1.7-0.7,3.6-1.1,5.5-1.2v6.2
			c-1.2,0-2.4,0.3-3.5,0.8C22.5,39.5,21.4,40.3,20.4,41.3L20.4,41.3L20.4,41.3L20.4,41.3z M18.1,44.8c-0.5,1.2-0.8,2.5-0.8,3.7h-6
			c0-1.8,0.3-3.5,0.9-5.2h6.6C18.5,43.9,18.3,44.4,18.1,44.8L18.1,44.8L18.1,44.8L18.1,44.8z"/>
		<path id="Fill-3" d="M8,56.9c1.8-1.9,2.8-4.1,3-6.8h6c-0.1,1.8-0.4,3.5-1,5.1c-0.7,2-1.8,3.7-3.1,5.3c-1.6,1.9-3.5,3.3-5.5,4.2
			c-1.9,0.9-3.9,1.3-6.1,1.4v-6C3.8,59.9,6.1,58.9,8,56.9"/>
		<path id="Fill-5" d="M35,58.9V56c0.4,0,0.9,0,1.3,0c1.2,0,2.2-0.4,2.2-1.9V38.9h3.8v15c0,4-2.6,5-5.4,5
			C36.1,58.9,35.6,58.9,35,58.9L35,58.9z M44.7,54.1V38.9h3.8v15.4c0,1.4,0.8,1.9,2,1.9c1.2,0,2-0.5,2-1.9V38.9h3.6v15.2
			c0,3.2-1.9,5-5.6,5C46.6,59.1,44.7,57.3,44.7,54.1L44.7,54.1z M63.7,41.5c-1.2,0-1.9,0.5-1.9,2c0,4.1,7.4,4.9,7.4,10.6
			c0,3.2-1.9,5-5.6,5c-3.7,0-5.6-1.8-5.6-5v-1.2h3.6v1.4c0,1.4,0.8,1.9,2,1.9c1.2,0,2-0.5,2-1.9c0-4.1-7.4-4.9-7.4-10.6
			c0-3.2,1.9-5,5.6-5c3.7,0,5.6,1.8,5.6,5v0.6h-3.6v-0.8C65.6,42.1,64.9,41.5,63.7,41.5L63.7,41.5z M78,58.9h-3.8V41.7h-4v-2.9H82
			v2.9h-4V58.9L78,58.9z M94.6,54.1c0,3.2-1.9,5-5.6,5c-3.7,0-5.6-1.8-5.6-5V43.7c0-3.2,1.9-5,5.6-5c3.7,0,5.6,1.8,5.6,5v1.9H91
			v-2.1c0-1.4-0.8-2-2-2s-2,0.5-2,2v10.8c0,1.4,0.8,1.9,2,1.9s2-0.5,2-1.9v-2.9h3.6V54.1L94.6,54.1z M96.6,54.1V43.7
			c0-3.2,2-5,5.7-5c3.7,0,5.7,1.8,5.7,5v10.4c0,3.2-2,5-5.7,5C98.6,59.1,96.6,57.3,96.6,54.1L96.6,54.1z M102.4,41.5
			c-1.2,0-2,0.5-2,2v10.8c0,1.4,0.8,2,2,2c1.2,0,2-0.5,2-2V43.5C104.3,42.1,103.6,41.5,102.4,41.5L102.4,41.5z M110.5,58.9v-20h6
			c3.8,0,5.6,1.7,5.6,4.9v10.1c0,3.2-1.9,4.9-5.6,4.9H110.5L110.5,58.9z M116.5,41.7h-2.1V56h2.1c1.2,0,1.9-0.5,1.9-1.9V43.7
			C118.4,42.3,117.7,41.7,116.5,41.7L116.5,41.7z M134.9,58.9h-10.3v-20h10.3v2.9h-6.5v5.6h5.2v2.9h-5.2V56h6.5V58.9L134.9,58.9z
			 M137.2,58.9v-20h6c3.8,0,5.6,1.7,5.6,4.9v10.1c0,3.2-1.9,4.9-5.6,4.9H137.2L137.2,58.9z M143.2,41.7H141V56h2.1
			c1.2,0,1.9-0.5,1.9-1.9V43.7C145.1,42.3,144.4,41.7,143.2,41.7L143.2,41.7z"/>
	</g>
</g>
</svg>
