<svg xmlns="http://www.w3.org/2000/svg" viewBox="0 0 150 100">
<g>
	<g>
		<path fill="#231F20" d="M15.9,69.4V58.8H18v8.8h5.4v1.8H15.9z"/>
		<path fill="#231F20" d="M28.7,69.5c-0.8,0-1.4-0.2-2.1-0.5c-0.6-0.3-1.2-0.7-1.6-1.2s-0.8-1.1-1-1.7c-0.2-0.7-0.4-1.3-0.4-2
			c0-0.7,0.1-1.4,0.4-2s0.6-1.2,1.1-1.7s1-0.9,1.6-1.2c0.6-0.3,1.3-0.4,2-0.4c0.8,0,1.4,0.2,2.1,0.5c0.6,0.3,1.1,0.7,1.6,1.2
			c0.4,0.5,0.8,1.1,1,1.7c0.2,0.7,0.4,1.3,0.4,2c0,0.7-0.1,1.4-0.4,2c-0.3,0.6-0.6,1.2-1.1,1.7s-1,0.9-1.6,1.2
			C30.1,69.3,29.5,69.5,28.7,69.5z M25.8,64.1c0,0.5,0.1,0.9,0.2,1.3c0.1,0.4,0.3,0.8,0.6,1.1c0.3,0.3,0.6,0.6,0.9,0.8
			c0.4,0.2,0.8,0.3,1.3,0.3c0.5,0,0.9-0.1,1.3-0.3c0.4-0.2,0.7-0.5,0.9-0.8s0.4-0.7,0.6-1.1c0.1-0.4,0.2-0.9,0.2-1.3
			c0-0.5-0.1-0.9-0.2-1.3c-0.1-0.4-0.3-0.8-0.6-1.1c-0.3-0.3-0.6-0.6-0.9-0.8c-0.4-0.2-0.8-0.3-1.2-0.3c-0.5,0-0.9,0.1-1.3,0.3
			c-0.4,0.2-0.7,0.5-0.9,0.8s-0.4,0.7-0.6,1.1C25.8,63.2,25.8,63.6,25.8,64.1z"/>
		<path fill="#231F20" d="M39.9,67.7c0.5,0,0.9-0.1,1.2-0.3s0.6-0.5,0.8-0.8c0.2-0.3,0.3-0.7,0.4-1.1c0.1-0.4,0.1-0.8,0.1-1.3v-5.4
			h2.1v5.4c0,0.7-0.1,1.4-0.3,2.1c-0.2,0.6-0.5,1.2-0.8,1.7c-0.4,0.5-0.9,0.9-1.4,1.1c-0.6,0.3-1.3,0.4-2.1,0.4
			c-0.9,0-1.6-0.1-2.2-0.4s-1.1-0.7-1.4-1.2c-0.4-0.5-0.6-1-0.8-1.7c-0.2-0.6-0.2-1.3-0.2-2v-5.4h2.1v5.4c0,0.5,0,0.9,0.1,1.3
			c0.1,0.4,0.2,0.8,0.4,1.1c0.2,0.3,0.5,0.6,0.8,0.8C39,67.6,39.4,67.7,39.9,67.7z"/>
		<path fill="#231F20" d="M48.7,62.6v6.8h-2.1V58.8h1.6l5.6,7v-7h2.1v10.6h-1.7L48.7,62.6z"/>
		<path fill="#231F20" d="M65.2,68.2c-0.8,0.9-1.8,1.3-2.8,1.3c-0.7,0-1.3-0.2-1.9-0.5s-1.1-0.7-1.6-1.2c-0.4-0.5-0.8-1.1-1.1-1.7
			s-0.4-1.3-0.4-2.1c0-0.7,0.1-1.4,0.4-2.1c0.3-0.6,0.6-1.2,1.1-1.7s1-0.9,1.6-1.2c0.6-0.3,1.3-0.4,2-0.4c1,0,1.8,0.2,2.5,0.6
			c0.7,0.4,1.2,1,1.6,1.7L65,62.2c-0.3-0.5-0.6-0.9-1.1-1.2c-0.5-0.3-1-0.4-1.5-0.4c-0.4,0-0.8,0.1-1.2,0.3
			c-0.4,0.2-0.7,0.5-0.9,0.8s-0.4,0.7-0.6,1.1c-0.1,0.4-0.2,0.9-0.2,1.4c0,0.5,0.1,1,0.2,1.4c0.1,0.4,0.4,0.8,0.6,1.1s0.6,0.6,1,0.8
			c0.4,0.2,0.8,0.3,1.2,0.3c1,0,1.9-0.5,2.7-1.5v-0.8h-2.1v-1.5h3.9v5.5h-1.7V68.2z"/>
		<path fill="#231F20" d="M76.1,67.6v1.8h-7.4V58.8H76v1.8h-5.2v2.6h4.5v1.7h-4.5v2.8H76.1z"/>
		<path fill="#231F20" d="M82.9,69.4V58.8h2.1v8.8h5.4v1.8H82.9z"/>
		<path fill="#231F20" d="M91.7,69.4V58.8h2.1v10.6H91.7z"/>
		<path fill="#231F20" d="M95.3,67.9l6-7.3h-5.8v-1.8h8.2v1.6l-5.8,7.3h5.9v1.8h-8.4V67.9z"/>
		<path fill="#231F20" d="M104.2,69.4l4.2-10.7h1.7l4.2,10.7h-2.2l-1-2.7h-3.7l-1,2.7H104.2z M109.3,61l-1.5,4.3h3L109.3,61z"/>
		<path fill="#231F20" d="M115.4,69.4V58.8h4.7c0.5,0,0.9,0.1,1.4,0.3s0.8,0.5,1.1,0.8c0.3,0.3,0.5,0.7,0.7,1.1s0.3,0.9,0.3,1.3
			c0,0.7-0.2,1.3-0.5,1.9c-0.3,0.6-0.8,1-1.4,1.2l2.5,4h-2.3l-2.2-3.6h-2v3.6H115.4z M117.5,64h2.6c0.2,0,0.4,0,0.5-0.1
			s0.3-0.2,0.4-0.4s0.2-0.3,0.3-0.5c0.1-0.2,0.1-0.4,0.1-0.7c0-0.2,0-0.5-0.1-0.7s-0.2-0.4-0.3-0.5s-0.3-0.3-0.5-0.4
			s-0.4-0.1-0.5-0.1h-2.5V64z"/>
		<path fill="#231F20" d="M125.6,69.4V58.8h3.9c0.9,0,1.6,0.1,2.3,0.4c0.7,0.3,1.2,0.7,1.6,1.1c0.4,0.5,0.8,1,1,1.7
			c0.2,0.6,0.3,1.3,0.3,2.1c0,0.8-0.1,1.5-0.4,2.2s-0.6,1.2-1.1,1.7c-0.5,0.5-1,0.8-1.7,1.1c-0.6,0.3-1.4,0.4-2.2,0.4H125.6z
			 M132.6,64.1c0-0.5-0.1-1-0.2-1.4c-0.1-0.4-0.3-0.8-0.6-1.1c-0.3-0.3-0.6-0.5-1-0.7c-0.4-0.2-0.8-0.3-1.3-0.3h-1.8v7h1.8
			c0.5,0,1-0.1,1.4-0.3c0.4-0.2,0.7-0.4,1-0.7c0.3-0.3,0.5-0.7,0.6-1.1C132.5,65,132.6,64.6,132.6,64.1z"/>
	</g>
	<g>
		<path fill="#231F20" d="M38,83.1c-0.3,0-0.5,0-0.7-0.1s-0.4-0.2-0.6-0.4c-0.2-0.2-0.3-0.3-0.4-0.6c-0.1-0.2-0.1-0.4-0.1-0.7
			c0-0.2,0.1-0.5,0.2-0.7s0.3-0.4,0.5-0.5c0.2-0.1,0.5-0.3,0.8-0.4s0.6-0.1,1-0.1c0.3,0,0.6,0,0.9,0.1s0.6,0.1,0.8,0.2v-0.6
			c0-0.5-0.2-1-0.5-1.3s-0.7-0.5-1.3-0.5c-0.3,0-0.6,0.1-0.9,0.2c-0.3,0.1-0.6,0.3-0.9,0.5l-0.2-0.4c0.7-0.5,1.4-0.7,2.1-0.7
			c0.7,0,1.2,0.2,1.6,0.6c0.4,0.4,0.6,1,0.6,1.7v2.8c0,0.2,0.1,0.3,0.2,0.3V83c0,0-0.1,0-0.1,0c0,0-0.1,0-0.1,0
			c-0.1,0-0.3,0-0.4-0.1c-0.1-0.1-0.2-0.2-0.2-0.4V82c-0.3,0.3-0.6,0.6-1,0.8C39,83,38.5,83.1,38,83.1z M38.1,82.6
			c0.4,0,0.8-0.1,1.2-0.2c0.4-0.2,0.6-0.4,0.8-0.6c0.1-0.1,0.2-0.3,0.2-0.4v-1c-0.6-0.2-1.1-0.3-1.7-0.3c-0.6,0-1,0.1-1.4,0.4
			c-0.4,0.2-0.5,0.5-0.5,0.9c0,0.2,0,0.4,0.1,0.5c0.1,0.2,0.2,0.3,0.3,0.4s0.3,0.2,0.5,0.3C37.7,82.6,37.9,82.6,38.1,82.6z"/>
		<path fill="#231F20" d="M47.8,83.1c-0.4,0-0.8-0.1-1.1-0.2s-0.6-0.4-0.9-0.7c-0.2-0.3-0.4-0.6-0.6-0.9S45,80.5,45,80.1
			c0-0.4,0.1-0.8,0.2-1.1c0.1-0.4,0.3-0.7,0.5-0.9s0.5-0.5,0.8-0.6s0.7-0.2,1.1-0.2c0.2,0,0.5,0,0.7,0.1s0.4,0.2,0.6,0.3
			c0.2,0.1,0.4,0.3,0.5,0.4c0.2,0.2,0.3,0.3,0.4,0.5v-3.6h0.5v7.3c0,0.2,0.1,0.3,0.2,0.3V83c0,0-0.1,0-0.1,0s-0.1,0-0.1,0
			c-0.2,0-0.3-0.1-0.4-0.2c-0.1-0.1-0.1-0.2-0.1-0.3v-0.7c-0.2,0.4-0.5,0.7-0.9,0.9C48.6,82.9,48.2,83.1,47.8,83.1z M47.9,82.6
			c0.2,0,0.4,0,0.6-0.1c0.2-0.1,0.4-0.2,0.6-0.3c0.2-0.1,0.4-0.3,0.5-0.5s0.2-0.4,0.2-0.6v-1.9c-0.1-0.2-0.2-0.4-0.3-0.6
			c-0.2-0.2-0.3-0.3-0.5-0.5c-0.2-0.1-0.4-0.2-0.6-0.3c-0.2-0.1-0.4-0.1-0.6-0.1c-0.3,0-0.6,0.1-0.9,0.2c-0.3,0.1-0.5,0.3-0.7,0.6
			c-0.2,0.2-0.3,0.5-0.4,0.8c-0.1,0.3-0.2,0.6-0.2,0.9c0,0.3,0.1,0.6,0.2,0.9c0.1,0.3,0.3,0.6,0.5,0.8s0.5,0.4,0.7,0.5
			S47.6,82.6,47.9,82.6z"/>
		<path fill="#231F20" d="M52.2,75.9v-1h0.5v1H52.2z M52.2,83v-5.7h0.5V83H52.2z"/>
		<path fill="#231F20" d="M56.8,83c-0.4,0-0.8-0.1-1.1-0.2s-0.6-0.4-0.9-0.7c-0.2-0.3-0.4-0.6-0.6-0.9c-0.1-0.4-0.2-0.7-0.2-1.1
			c0-0.4,0.1-0.8,0.2-1.1s0.3-0.7,0.5-1c0.2-0.3,0.5-0.5,0.8-0.7c0.3-0.2,0.7-0.2,1.1-0.2c0.5,0,0.9,0.1,1.3,0.4
			c0.4,0.3,0.7,0.6,1,1v-1.2h0.5v5.8c0,0.4-0.1,0.7-0.2,1c-0.1,0.3-0.3,0.5-0.6,0.7s-0.5,0.3-0.9,0.4c-0.3,0.1-0.7,0.1-1,0.1
			c-0.3,0-0.6,0-0.9-0.1c-0.3-0.1-0.5-0.2-0.7-0.3c-0.2-0.1-0.4-0.3-0.5-0.4s-0.3-0.3-0.4-0.5l0.4-0.3c0.2,0.4,0.5,0.7,0.9,0.9
			s0.8,0.3,1.2,0.3c0.3,0,0.6,0,0.8-0.1s0.5-0.2,0.7-0.4c0.2-0.2,0.3-0.4,0.5-0.6c0.1-0.2,0.2-0.5,0.2-0.8v-1.3
			c-0.2,0.4-0.5,0.7-0.9,0.9C57.6,82.9,57.2,83,56.8,83z M56.9,82.6c0.2,0,0.5,0,0.7-0.1c0.2-0.1,0.4-0.2,0.6-0.4s0.3-0.3,0.5-0.5
			c0.1-0.2,0.2-0.4,0.2-0.5v-1.9c-0.1-0.2-0.2-0.4-0.4-0.6c-0.1-0.2-0.3-0.3-0.5-0.5c-0.2-0.1-0.4-0.2-0.6-0.3
			c-0.2-0.1-0.4-0.1-0.7-0.1c-0.3,0-0.7,0.1-0.9,0.2c-0.3,0.1-0.5,0.3-0.7,0.6c-0.2,0.2-0.3,0.5-0.4,0.8s-0.1,0.6-0.1,0.9
			c0,0.3,0.1,0.6,0.2,0.9c0.1,0.3,0.3,0.6,0.5,0.8s0.5,0.4,0.7,0.5S56.6,82.6,56.9,82.6z"/>
		<path fill="#231F20" d="M61.2,75.9v-1h0.5v1H61.2z M61.2,83v-5.7h0.5V83H61.2z"/>
		<path fill="#231F20" d="M66,82.7c0,0-0.1,0-0.1,0.1s-0.2,0.1-0.3,0.1c-0.1,0-0.2,0.1-0.4,0.1c-0.1,0-0.3,0-0.4,0
			c-0.2,0-0.3,0-0.4-0.1s-0.3-0.1-0.4-0.2c-0.1-0.1-0.2-0.2-0.2-0.3c-0.1-0.1-0.1-0.3-0.1-0.4v-4.3h-0.8v-0.5h0.8v-2h0.6v2h1.3v0.5
			h-1.3v4.2c0,0.2,0.1,0.4,0.2,0.5s0.3,0.2,0.5,0.2c0.2,0,0.4,0,0.6-0.1s0.3-0.1,0.3-0.1L66,82.7z"/>
		<path fill="#231F20" d="M68.3,83.1c-0.3,0-0.5,0-0.7-0.1s-0.4-0.2-0.6-0.4c-0.2-0.2-0.3-0.3-0.4-0.6c-0.1-0.2-0.1-0.4-0.1-0.7
			c0-0.2,0.1-0.5,0.2-0.7s0.3-0.4,0.5-0.5c0.2-0.1,0.5-0.3,0.8-0.4s0.6-0.1,1-0.1c0.3,0,0.6,0,0.9,0.1s0.6,0.1,0.8,0.2v-0.6
			c0-0.5-0.2-1-0.5-1.3s-0.7-0.5-1.3-0.5c-0.3,0-0.6,0.1-0.9,0.2c-0.3,0.1-0.6,0.3-0.9,0.5l-0.2-0.4c0.7-0.5,1.4-0.7,2.1-0.7
			c0.7,0,1.2,0.2,1.6,0.6c0.4,0.4,0.6,1,0.6,1.7v2.8c0,0.2,0.1,0.3,0.2,0.3V83c0,0-0.1,0-0.1,0c0,0-0.1,0-0.1,0
			c-0.1,0-0.3,0-0.4-0.1c-0.1-0.1-0.2-0.2-0.2-0.4V82c-0.3,0.3-0.6,0.6-1,0.8C69.2,83,68.8,83.1,68.3,83.1z M68.4,82.6
			c0.4,0,0.8-0.1,1.2-0.2c0.4-0.2,0.6-0.4,0.8-0.6c0.1-0.1,0.2-0.3,0.2-0.4v-1C70,80.1,69.5,80,68.9,80c-0.6,0-1,0.1-1.4,0.4
			c-0.4,0.2-0.5,0.5-0.5,0.9c0,0.2,0,0.4,0.1,0.5c0.1,0.2,0.2,0.3,0.3,0.4s0.3,0.2,0.5,0.3C68,82.6,68.2,82.6,68.4,82.6z"/>
		<path fill="#231F20" d="M72.9,74.9h0.6v6.9c0,0.2,0.1,0.4,0.2,0.5s0.3,0.2,0.5,0.2c0.1,0,0.2,0,0.3,0c0.1,0,0.2,0,0.3-0.1l0.1,0.4
			c-0.1,0.1-0.3,0.1-0.5,0.1c-0.2,0-0.3,0-0.5,0c-0.3,0-0.6-0.1-0.7-0.3c-0.2-0.2-0.3-0.4-0.3-0.8V74.9z"/>
		<path fill="#231F20" d="M79.5,83.1c-0.3,0-0.5,0-0.7-0.1c-0.2-0.1-0.4-0.2-0.6-0.4c-0.2-0.2-0.3-0.3-0.4-0.6
			c-0.1-0.2-0.1-0.4-0.1-0.7c0-0.2,0.1-0.5,0.2-0.7s0.3-0.4,0.5-0.5c0.2-0.1,0.5-0.3,0.8-0.4c0.3-0.1,0.6-0.1,1-0.1
			c0.3,0,0.6,0,0.9,0.1s0.6,0.1,0.8,0.2v-0.6c0-0.5-0.2-1-0.5-1.3c-0.3-0.3-0.7-0.5-1.3-0.5c-0.3,0-0.6,0.1-0.9,0.2
			c-0.3,0.1-0.6,0.3-0.9,0.5L78,77.9c0.7-0.5,1.4-0.7,2.1-0.7c0.7,0,1.2,0.2,1.6,0.6c0.4,0.4,0.6,1,0.6,1.7v2.8
			c0,0.2,0.1,0.3,0.2,0.3V83c0,0-0.1,0-0.1,0c0,0-0.1,0-0.1,0c-0.1,0-0.3,0-0.4-0.1c-0.1-0.1-0.2-0.2-0.2-0.4V82
			c-0.3,0.3-0.6,0.6-1,0.8C80.5,83,80,83.1,79.5,83.1z M79.6,82.6c0.4,0,0.8-0.1,1.2-0.2s0.6-0.4,0.8-0.6c0.1-0.1,0.2-0.3,0.2-0.4
			v-1c-0.6-0.2-1.1-0.3-1.7-0.3c-0.6,0-1,0.1-1.4,0.4c-0.4,0.2-0.5,0.5-0.5,0.9c0,0.2,0,0.4,0.1,0.5c0.1,0.2,0.2,0.3,0.3,0.4
			s0.3,0.2,0.5,0.3C79.2,82.6,79.4,82.6,79.6,82.6z"/>
		<path fill="#231F20" d="M86.4,83c-0.4,0-0.8-0.1-1.1-0.2s-0.6-0.4-0.9-0.7c-0.2-0.3-0.4-0.6-0.6-0.9c-0.1-0.4-0.2-0.7-0.2-1.1
			c0-0.4,0.1-0.8,0.2-1.1c0.1-0.4,0.3-0.7,0.5-1c0.2-0.3,0.5-0.5,0.8-0.7s0.7-0.2,1.1-0.2c0.5,0,0.9,0.1,1.3,0.4
			c0.4,0.3,0.7,0.6,1,1v-1.2h0.5v5.8c0,0.4-0.1,0.7-0.2,1s-0.3,0.5-0.6,0.7c-0.2,0.2-0.5,0.3-0.9,0.4c-0.3,0.1-0.7,0.1-1,0.1
			c-0.3,0-0.6,0-0.9-0.1S85,85.2,84.8,85c-0.2-0.1-0.4-0.3-0.5-0.4c-0.2-0.2-0.3-0.3-0.4-0.5l0.4-0.3c0.2,0.4,0.5,0.7,0.9,0.9
			s0.8,0.3,1.2,0.3c0.3,0,0.6,0,0.8-0.1c0.3-0.1,0.5-0.2,0.7-0.4c0.2-0.2,0.3-0.4,0.5-0.6c0.1-0.2,0.2-0.5,0.2-0.8v-1.3
			c-0.2,0.4-0.5,0.7-0.9,0.9C87.2,82.9,86.8,83,86.4,83z M86.5,82.6c0.2,0,0.5,0,0.7-0.1c0.2-0.1,0.4-0.2,0.6-0.4
			c0.2-0.1,0.3-0.3,0.5-0.5c0.1-0.2,0.2-0.4,0.2-0.5v-1.9c-0.1-0.2-0.2-0.4-0.4-0.6c-0.1-0.2-0.3-0.3-0.5-0.5
			c-0.2-0.1-0.4-0.2-0.6-0.3c-0.2-0.1-0.4-0.1-0.7-0.1c-0.3,0-0.7,0.1-0.9,0.2c-0.3,0.1-0.5,0.3-0.7,0.6c-0.2,0.2-0.3,0.5-0.4,0.8
			c-0.1,0.3-0.1,0.6-0.1,0.9c0,0.3,0.1,0.6,0.2,0.9c0.1,0.3,0.3,0.6,0.5,0.8s0.5,0.4,0.7,0.5C85.9,82.5,86.2,82.6,86.5,82.6z"/>
		<path fill="#231F20" d="M93.2,83.1c-0.4,0-0.8-0.1-1.1-0.2c-0.3-0.2-0.6-0.4-0.9-0.6c-0.3-0.3-0.5-0.6-0.6-1s-0.2-0.7-0.2-1.2
			c0-0.4,0.1-0.8,0.2-1.1s0.3-0.7,0.6-0.9c0.2-0.3,0.5-0.5,0.9-0.6s0.7-0.2,1.1-0.2c0.4,0,0.8,0.1,1.1,0.2c0.3,0.2,0.6,0.4,0.9,0.6
			c0.2,0.3,0.4,0.6,0.6,0.9c0.1,0.4,0.2,0.7,0.2,1.1c0,0,0,0.1,0,0.1c0,0.1,0,0.1,0,0.1h-5c0,0.3,0.1,0.6,0.2,0.9
			c0.1,0.3,0.3,0.5,0.5,0.7c0.2,0.2,0.4,0.4,0.7,0.5c0.3,0.1,0.5,0.2,0.8,0.2c0.2,0,0.4,0,0.6-0.1c0.2-0.1,0.4-0.1,0.5-0.2
			c0.2-0.1,0.3-0.2,0.4-0.3c0.1-0.1,0.2-0.3,0.3-0.4l0.5,0.1c-0.1,0.2-0.2,0.4-0.4,0.6c-0.2,0.2-0.3,0.3-0.5,0.4
			c-0.2,0.1-0.4,0.2-0.7,0.3C93.7,83,93.5,83.1,93.2,83.1z M95.5,79.9c0-0.3-0.1-0.6-0.2-0.9s-0.3-0.5-0.5-0.7
			c-0.2-0.2-0.4-0.4-0.7-0.5c-0.3-0.1-0.5-0.2-0.8-0.2c-0.3,0-0.6,0.1-0.8,0.2c-0.3,0.1-0.5,0.3-0.7,0.5c-0.2,0.2-0.4,0.4-0.5,0.7
			c-0.1,0.3-0.2,0.6-0.2,0.9H95.5z"/>
		<path fill="#231F20" d="M101.9,83h-0.5v-3.2c0-0.7-0.1-1.3-0.3-1.6c-0.2-0.3-0.5-0.5-1-0.5c-0.2,0-0.5,0-0.7,0.1s-0.5,0.2-0.7,0.4
			c-0.2,0.2-0.4,0.3-0.5,0.6c-0.2,0.2-0.3,0.4-0.3,0.7V83h-0.5v-5.7h0.5v1.4c0.1-0.2,0.3-0.4,0.4-0.6c0.2-0.2,0.4-0.3,0.6-0.5
			c0.2-0.1,0.4-0.2,0.7-0.3c0.2-0.1,0.5-0.1,0.8-0.1c0.6,0,1.1,0.2,1.3,0.7c0.3,0.4,0.4,1.1,0.4,1.9V83z"/>
		<path fill="#231F20" d="M103.1,80.1c0-0.4,0.1-0.8,0.2-1.1c0.1-0.4,0.3-0.7,0.6-0.9c0.3-0.3,0.6-0.5,0.9-0.6s0.7-0.2,1.1-0.2
			c0.5,0,1,0.1,1.4,0.4s0.7,0.6,0.9,1l-0.5,0.2c-0.2-0.3-0.4-0.6-0.7-0.7c-0.3-0.2-0.7-0.3-1-0.3c-0.3,0-0.6,0.1-0.9,0.2
			c-0.3,0.1-0.5,0.3-0.7,0.5c-0.2,0.2-0.4,0.5-0.5,0.8c-0.1,0.3-0.2,0.6-0.2,1s0.1,0.7,0.2,1c0.1,0.3,0.3,0.6,0.5,0.8
			c0.2,0.2,0.4,0.4,0.7,0.5s0.6,0.2,0.9,0.2c0.2,0,0.4,0,0.6-0.1s0.4-0.1,0.5-0.2c0.2-0.1,0.3-0.2,0.4-0.3c0.1-0.1,0.2-0.3,0.2-0.4
			l0.5,0.2c-0.1,0.2-0.2,0.4-0.3,0.6s-0.3,0.3-0.5,0.4c-0.2,0.1-0.4,0.2-0.7,0.3c-0.2,0.1-0.5,0.1-0.8,0.1c-0.4,0-0.8-0.1-1.1-0.2
			c-0.3-0.2-0.6-0.4-0.9-0.6c-0.3-0.3-0.5-0.6-0.6-1S103.1,80.5,103.1,80.1z"/>
		<path fill="#231F20" d="M109.8,84.9c0.1,0,0.2,0,0.3,0c0.1,0,0.2,0,0.3-0.1c0,0,0.1,0,0.1-0.1s0.1-0.1,0.2-0.3
			c0.1-0.1,0.2-0.3,0.3-0.6c0.1-0.2,0.2-0.5,0.4-0.9l-2.6-5.7h0.6l2.3,5.2l2.1-5.2h0.5l-3.1,7.5c-0.1,0.3-0.3,0.4-0.4,0.5
			c-0.2,0.1-0.4,0.1-0.7,0.1c0,0-0.1,0-0.1,0c0,0-0.1,0-0.1,0V84.9z"/>
	</g>
	<path id="XMLID_7_" d="M70.7,17.5c7.1-2.9,22.1-5,29.8,4.2c5.2,6.3,4.4,16.9-9.9,25.3c-1.6,1-2.5-0.1-0.9-1.1
		c2.4-1.3,18-12.5,8.2-21.3c-6.6-5.9-17.2-4.5-22.8-1.6c0.4,2.4,2.6,1.3,4,0.4c1.3-0.9,2.9-0.6,4.2-0.4c1.4,0.1,4-0.2,4.9-0.3
		c0.9,0,1.2,0.5,0.2,0.6c-1,0-4,0.3-4.1,0.9c-0.1,1,1,1.2,2.6,1.8c1.6,0.5,7.3,1.9,8.4,2.9c1.1,0.9,0.4,0.9-0.4,0.6
		c-0.8-0.3-5.9-2.2-7.8-2.4c-1.5-0.2-1.9-0.2-2.3,0.3C84.3,28,86,30.1,87,31.7c1,1.6-0.3,1.5-0.7,0.8c-0.4-0.7-1.8-3-2.1-3.6
		c-0.2-0.4-0.5-0.6-0.8-0.6c-0.2,0-0.3,0.1-0.3,0.6c0,0.5-0.1,1.4-0.1,2.1c0,0.5-0.6,0.7-0.6,0.1c0-0.6,0-1.5,0-2.1
		c0-0.5-0.1-0.8-0.3-0.9c-0.2-0.1-0.5,0-0.8,0.3c-0.4,0.3-0.5,0.6-0.7,1.2c-0.1,0.6-0.7,0-0.4-0.7c0.3-0.7,1-1,1.1-1.5
		c0.1-0.4,0-0.8-0.2-0.9c-0.1-0.1-0.5,0.2-0.8,0.6c-0.6,0.8-2.2,1.8-3.4,2.1c-1,0.3-2.7,0.3-3.7-1.2c-0.4-0.6-0.8-0.8-2.1-0.5
		c0.3,0.6,0.3,1.8-0.5,3c-1.1,1.6-2,1.7-2.1,2.8c1.7-0.6,2.2-0.6,2.5-0.3c0.3,0.3,0.6,1.8,0.3,2.7c-0.3,1-0.4,2.1-0.3,3.6
		c0.2,0.4,1.8,0.4,2.3,0.6c0.5,0.2,0,0.3-0.3,0.3c-0.2,0-0.5,0-0.8-0.1c-0.4,0-0.6,0.1-0.6,0.2c-0.1,0.2,0.1,0.4,0.4,0.6
		c0.2,0.1,1,0.8,1.2,1.1c0.2,0.3-0.1,0.6-0.3,0.3c-0.2-0.3-1.2-1.1-1.6-1.3c-0.4-0.2-0.5-0.3-0.8-0.2c-0.3,0.1-0.3,0.4-0.4,0.7
		c-0.1,0.4-0.2,2-0.3,2.5c-0.1,0.5-0.7,0.3-0.6-0.1c0-0.3,0.3-1.8,0.3-2.1c0-0.3-0.1-0.5-0.3-0.5c-0.2,0-0.4,0.1-0.5,0.2
		c-0.1,0.1-0.8,1.6-1.2,2.1c-0.4,0.4-0.7,0.1-0.4-0.3c0.2-0.4,0.9-1.5,1-2.3c0.1-0.8-0.3-1.2-0.1-2c0.2-0.8,0.5-1.3,0.8-1.7
		c0.3-0.4,0.5-0.8,0.6-1.2c0-0.4-0.1-0.6-0.2-0.7c-0.3,0-0.9,0.3-1.1,0.6c-0.2,0.3-1.3,1.6-1.6,2.3c-0.3,0.6,0.2,1.9,0,2.6
		c-0.2,0.8-1.4,4.2-2.6,4.7c-1.2,0.5-3.3-1.7-3.9-3c-0.4-1-1.5-1.7-1.9-1.7c-0.4,0.1-0.8,1-0.8,1.3c0.2,1.2,0.6,3,0.6,4.4
		c0.1,0.9,0.8,1.4,1.4,1.5c0.5,0.2,1.2,0.4,1.6,0.5c0.4,0.2-0.2,0.5-0.4,0.3c-0.3-0.1-0.8-0.3-1.2-0.4c-0.2,0-0.4,0-0.5,0
		c-0.1,0.1-0.1,0.4-0.1,0.7c0.1,0.3,1.8,1.5,2.1,2c0.5,0.7-0.2,0.6-0.6,0.3c-0.3-0.3-1.5-1.1-1.7-1.2c-0.3-0.1-0.6-0.2-0.7,0
		c-0.2,0.2,0.4,2.4,0.3,3.2c-0.2,0.8-0.6,0.7-0.6,0.1c0-0.7-0.1-1.8-0.3-2.5c-0.2-0.6-0.6-0.6-0.7-0.4c-0.3,0.5-0.8,1.5-1.2,2
		c-0.3,0.5-0.8,0.5-0.6,0c0.3-0.8,1.3-2.6,1.5-3c0.1-0.3,0-0.6-0.3-0.6c-0.3,0-0.6,0.4-0.9,0.7c-0.3,0.3-1,1-1.2,0.6
		c-0.1-0.3,2-1.8,2.3-3c0.1-0.6-0.5-2-0.8-2.7c-0.2-0.7-0.9-3.3-0.3-4.7c0.6-1.3,1.7-2,1.9-2.6c0.1-0.3,0-0.9,0.1-1.4
		c0-0.3,0.2-0.9,0.4-1.4c0.2-0.5,0.6-1,0.6-1.3c0-0.9-2-2.1-1.3-5.1c0.4-1.5,2.2-3.9,2.8-4.5c0.6-0.4,1.4-0.5,1.4-0.8
		c0-0.3-0.7-0.4-1.1-0.5c-0.5-0.2-1.3-1.7-1.1-2.2c0.2-0.5,1.1-1.1,1.1-1.4c0-0.2-0.5-0.1-1,0c-0.5,0.1-1.5,0.6-2.3,1
		c-0.5,0.3-0.7-0.2-0.3-0.6c0.7-0.5,2.7-1.4,4-1.3c1.3,0.1,1.8,0,1.8-0.3c0-0.3,0-0.8-0.5-1.1c-0.6-0.3-4.2-1.6-5.6-1.9
		c-1.4-0.2-1-0.8-0.3-0.7c0.8,0.1,6.1,1.8,6.5,2c0.4,0.2,0.7,0.4,1.1,0.4c0.5,0.1,3.2,0.4,3.7,0.1c0.4-0.3,0.2-1.7,0.4-2.2
		c0.2-0.5,0.7-0.5,0.6,0.1c0,0.5-0.1,1.1,0,1.6c0.2,0.6,1.1,0.6,1.2,1.1c0.1,0.4,0.1,0.7,0.4,0.7C70.2,17.7,70.7,17.5,70.7,17.5z"/>
</g>
</svg>
